<?xml version="1.0" encoding="UTF-8" standalone="no"?>
<svg width="22px" height="30px" viewBox="0 0 22 30" version="1.1" xmlns="http://www.w3.org/2000/svg" xmlns:xlink="http://www.w3.org/1999/xlink" xmlns:sketch="http://www.bohemiancoding.com/sketch/ns">
    <!-- Generator: Sketch 3.0.3 (7892) - http://www.bohemiancoding.com/sketch -->
    <title>Slice 1</title>
    <desc>Created with Sketch.</desc>
    <defs></defs>
    <g id="Page-1" stroke="none" stroke-width="1" fill="none" fill-rule="evenodd" sketch:type="MSPage">
        <g id="logo-04" sketch:type="MSLayerGroup" fill="#FFEA77">
            <g id="Group" sketch:type="MSShapeGroup">
                <g id="Shape">
                    <path d="M20.0961538,25.9720588 C20.6884615,25.6308824 21.45,25.8014706 21.7884615,26.3985294 C22.0846154,26.9955882 21.9153846,27.7205882 21.2807692,28.1897059 C20.4769231,28.7867647 19.5884615,29.1279412 18.3192308,29.1279412 C16.6269231,29.1279412 15.2307692,28.1470588 14.5961538,26.6970588 C13.2846154,28.1470588 11.3807692,29.1279412 8.84230769,29.1279412 C4.44230769,29.1279412 2.49615385,25.9294118 2.49615385,22.0485294 C2.49615385,17.1867647 3.17307692,14.7132353 3.17307692,10.9176471 C3.17307692,10.7044118 3.13076923,10.4058824 2.83461538,10.4058824 C2.62307692,10.4058824 2.49615385,10.4485294 2.24230769,10.7470588 C1.86153846,11.2588235 1.31153846,11.3867647 0.719230769,11.1308824 C0.169230769,10.8323529 -0.126923077,10.2352941 0.169230769,9.55294118 C0.930769231,7.80441176 2.28461538,6.90882353 3.97692308,6.90882353 C7.06538462,6.90882353 7.82692308,8.95588235 7.82692308,11.3014706 C7.82692308,15.225 6.72692308,17.1867647 6.72692308,22.3044118 C6.72692308,24.2661765 7.57307692,26.0147059 9.77307692,26.0147059 C11.9307692,26.0147059 14.1307692,24.7352941 14.1307692,22.0485294 L14.1307692,21.9205882 C14.0038462,17.0588235 13.75,11.8985294 13.75,9.25441176 C13.75,7.93235294 14.8076923,6.90882353 16.0769231,6.90882353 C17.3884615,6.90882353 18.4038462,7.975 18.4038462,9.25441176 C18.4038462,12.3676471 18.2769231,19.5323529 18.2769231,25.2044118 C18.2769231,25.7161765 18.5730769,26.1852941 19.2076923,26.1852941 C19.5884615,26.2279412 19.7576923,26.1852941 20.0961538,25.9720588 L20.0961538,25.9720588 Z M10.8307692,5.84264706 C9.22307692,5.84264706 7.95384615,4.52058824 7.95384615,2.94264706 C7.95384615,1.36470588 9.26538462,0.0426470588 10.8307692,0.0426470588 C12.4384615,0.0426470588 13.7076923,1.36470588 13.7076923,2.94264706 C13.7076923,4.52058824 12.3961538,5.84264706 10.8307692,5.84264706 L10.8307692,5.84264706 Z M10.8307692,3.96617647 C11.3807692,3.96617647 11.8038462,3.53970588 11.8038462,2.98529412 C11.8038462,2.43088235 11.3807692,2.00441176 10.8307692,2.00441176 C10.2807692,2.00441176 9.85769231,2.43088235 9.85769231,2.98529412 C9.81538462,3.49705882 10.2807692,3.96617647 10.8307692,3.96617647 L10.8307692,3.96617647 Z"></path>
                </g>
            </g>
        </g>
    </g>
</svg>